HIERARCHY
ROOT Hips
{
	OFFSET 0.000000 0.000000 0.000000
	CHANNELS 6 Xposition Yposition Zposition Xrotation Yrotation Zrotation
	JOINT LeftUpLeg_virtual
	{
		OFFSET 0.000000 0.000000 0.000000
		CHANNELS 3 Xrotation Yrotation Zrotation
		JOINT LeftUpLeg
		{
			OFFSET 13.026900 -6.336304 -1.092800
			CHANNELS 3 Xrotation Yrotation Zrotation
			JOINT LeftLeg
			{
				OFFSET 0.524474 -46.096886 9.782700
				CHANNELS 3 Xrotation Yrotation Zrotation
				JOINT LeftFoot
				{
					OFFSET -0.524474 -53.427422 -12.948200
					CHANNELS 3 Xrotation Yrotation Zrotation
					JOINT LeftToeBase
					{
						OFFSET 0.192200 -14.009700 16.364100
						CHANNELS 3 Xrotation Yrotation Zrotation
						JOINT LeftToe_End
						{
							OFFSET -1.784700 -0.561700 9.474800
							CHANNELS 3 Xrotation Yrotation Zrotation
							End Site
							{
								OFFSET 0 0 0
							}
						}
					}
				}
			}
		}
	}
	JOINT RightUpLeg_virtual
	{
		OFFSET 0.000000 0.000000 0.000000
		CHANNELS 3 Xrotation Yrotation Zrotation
		JOINT RightUpLeg
		{
			OFFSET -12.883000 -6.336304 -1.092800
			CHANNELS 3 Xrotation Yrotation Zrotation
			JOINT RightLeg
			{
				OFFSET -0.524587 -46.096825 9.782800
				CHANNELS 3 Xrotation Yrotation Zrotation
				JOINT RightFoot
				{
					OFFSET 0.524587 -53.427383 -12.948300
					CHANNELS 3 Xrotation Yrotation Zrotation
					JOINT RightToeBase
					{
						OFFSET -0.192200 -14.009700 16.364100
						CHANNELS 3 Xrotation Yrotation Zrotation
						JOINT RightToe_End
						{
							OFFSET 1.784700 -0.561700 9.474800
							CHANNELS 3 Xrotation Yrotation Zrotation
							End Site
							{
								OFFSET 0 0 0
							}
						}
					}
				}
			}
		}
	}
	JOINT Spine_virtual
	{
		OFFSET 0.000000 0.000000 0.000000
		CHANNELS 3 Xrotation Yrotation Zrotation
		JOINT Spine
		{
			OFFSET 0.072000 7.257294 -0.789700
			CHANNELS 3 Xrotation Yrotation Zrotation
			JOINT Spine1
			{
				OFFSET 0.000000 12.508769 -0.658067
				CHANNELS 3 Xrotation Yrotation Zrotation
				JOINT Spine1_split
				{
					OFFSET 0.000000 12.508769 -0.658067
					CHANNELS 3 Xrotation Yrotation Zrotation
					JOINT Spine2
					{
						OFFSET 0.000000 12.508769 -0.658067
						CHANNELS 3 Xrotation Yrotation Zrotation
						JOINT Neck_virtual
						{
							OFFSET 0.000000 0.000000 0.000000
							CHANNELS 3 Xrotation Yrotation Zrotation
							JOINT Neck
							{
								OFFSET 0.000000 14.033295 7.520400
								CHANNELS 3 Xrotation Yrotation Zrotation
								JOINT Head
								{
									OFFSET 0.000000 8.198502 5.703100
									CHANNELS 3 Xrotation Yrotation Zrotation
									JOINT HeadTop_End
									{
										OFFSET 0.000000 17.760803 13.332701
										CHANNELS 3 Xrotation Yrotation Zrotation
										End Site
										{
											OFFSET 0 0 0
										}
									}
								}
							}
						}
						JOINT LeftShoulder_virtual
						{
							OFFSET 0.000000 0.000000 0.000000
							CHANNELS 3 Xrotation Yrotation Zrotation
							JOINT LeftShoulder
							{
								OFFSET 6.292450 5.785301 -0.669000
								CHANNELS 3 Xrotation Yrotation Zrotation
								JOINT LeftShoulder_split
								{
									OFFSET 6.292450 5.785301 -0.669000
									CHANNELS 3 Xrotation Yrotation Zrotation
									JOINT LeftArm
									{
										OFFSET 13.907140 -6.093903 1.965100
										CHANNELS 3 Xrotation Yrotation Zrotation
										JOINT LeftForeArm
										{
											OFFSET 34.140198 0.000000 0.000000
											CHANNELS 3 Xrotation Yrotation Zrotation
											JOINT LeftHand
											{
												OFFSET 40.960209 0.000000 0.000000
												CHANNELS 3 Xrotation Yrotation Zrotation
												End Site
												{
													OFFSET 0 0 0
												}
											}
										}
									}
								}
							}
						}
						JOINT RightShoulder_virtual
						{
							OFFSET 0.000000 0.000000 0.000000
							CHANNELS 3 Xrotation Yrotation Zrotation
							JOINT RightShoulder
							{
								OFFSET -6.292450 5.785301 -0.669000
								CHANNELS 3 Xrotation Yrotation Zrotation
								JOINT RightShoulder_split
								{
									OFFSET -6.292450 5.785301 -0.669000
									CHANNELS 3 Xrotation Yrotation Zrotation
									JOINT RightArm
									{
										OFFSET -13.907140 -6.093903 1.965100
										CHANNELS 3 Xrotation Yrotation Zrotation
										JOINT RightForeArm
										{
											OFFSET -34.140198 0.000000 0.000000
											CHANNELS 3 Xrotation Yrotation Zrotation
											JOINT RightHand
											{
												OFFSET -40.960209 0.000000 0.000000
												CHANNELS 3 Xrotation Yrotation Zrotation
												End Site
												{
													OFFSET 0 0 0
												}
											}
										}
									}
								}
							}
						}
					}
				}
			}
		}
	}
}
MOTION
Frames: 7
Frame Time: 0.03333333
2.084866 103.562157 1.562584 0.000000 0.000000 0.000000 7.975742 -67.133103 9.785676 -31.855449 12.861489 23.236923 32.626495 -4.654410 -0.686831 -6.003389 -3.392865 -15.494025 0.506293 0.114514 0.291596 0.000000 0.000000 0.000000 5.725246 -66.273073 8.341697 -21.777141 -11.099660 -29.489321 25.272603 -3.535084 -2.790115 -3.818766 -3.221328 20.981774 -3.605177 0.465228 0.455996 0.000000 0.000000 0.000000 3.085698 -64.372935 5.556270 16.350240 0.577246 -4.352281 4.582989 0.825569 -2.660020 0.531317 2.432006 0.603541 0.000000 0.000000 0.000000 4.211929 0.536617 -2.631192 -4.989278 2.986283 2.965578 -15.662218 52.788046 -3.310306 0.000000 0.000000 0.000000 4.800383 0.194027 -2.691884 2.598180 -3.364305 -11.193870 -3.310503 -5.693939 1.576192 -37.739910 28.641237 -33.339827 3.185970 -42.868214 4.461780 0.000000 0.000000 0.000000 5.371266 0.635009 -2.422079 1.876051 5.752922 9.240806 4.230585 4.502378 0.734888 4.646405 -9.717982 55.013878 -20.247862 35.297154 13.453185 0.000000 0.000000 0.000000 
1.519370 104.159233 3.865334 0.000000 0.000000 0.000000 7.311443 -67.653809 9.168510 -32.014295 13.489447 23.180245 33.118570 -4.579936 -0.486672 -5.819291 -2.987396 -15.760827 0.164558 0.038026 0.557591 0.000000 0.000000 0.000000 6.742234 -67.316487 8.934808 -21.393797 -10.526916 -29.277152 25.914342 -3.852284 -2.710255 -3.126639 -3.601590 20.211254 -3.570422 0.306035 0.818577 0.000000 0.000000 0.000000 4.087934 -64.853876 6.110062 16.217553 0.403541 -4.298288 4.513407 0.679674 -2.579222 0.364574 2.443822 0.568514 0.000000 0.000000 0.000000 3.919934 0.446024 -2.575424 -5.211103 3.149218 2.516943 -14.794471 52.666226 -3.944644 0.000000 0.000000 0.000000 4.699262 0.042403 -2.648970 2.640644 -3.823126 -10.858305 -3.594776 -5.626289 1.820194 -38.651959 28.758392 -32.737650 3.102325 -43.876623 4.578551 0.000000 0.000000 0.000000 5.305129 0.590983 -2.372883 1.851695 6.345933 9.607569 3.581116 3.754833 0.361057 3.496254 -9.845832 54.519072 -19.764547 33.827086 12.948078 0.000000 0.000000 0.000000 
0.881336 104.772339 6.762959 0.000000 0.000000 0.000000 6.924147 -68.413504 8.728298 -31.802928 14.221892 22.850318 33.916349 -4.313213 -0.378888 -6.333276 -2.253781 -15.233579 -0.461151 -0.030676 0.828110 0.000000 0.000000 0.000000 7.873349 -68.385643 9.610642 -21.439836 -8.905299 -28.910702 27.696506 -4.230726 -2.387140 -2.839401 -4.645527 19.187846 -3.825576 0.154429 1.281736 0.000000 0.000000 0.000000 5.515753 -65.386658 6.997170 15.976755 0.203505 -4.173313 4.233434 0.290451 -2.413315 0.307474 2.353692 0.426786 0.000000 0.000000 0.000000 3.430381 0.066151 -2.381885 -5.227734 3.763826 1.978674 -13.856527 52.623076 -4.707368 0.000000 0.000000 0.000000 4.362121 -0.376141 -2.488925 2.674389 -4.275801 -10.625905 -3.761750 -5.181396 1.893370 -40.173035 28.579129 -31.743106 4.383021 -43.745617 5.682524 0.000000 0.000000 0.000000 4.947407 0.259518 -2.204684 1.903847 7.015069 10.003210 2.985265 3.106050 0.077707 1.350199 -9.821658 53.720944 -18.717899 30.790377 11.845946 0.000000 0.000000 0.000000 
0.231821 105.028709 9.782307 0.000000 0.000000 0.000000 7.051371 -69.148753 8.677814 -31.613452 14.856233 22.400316 35.202532 -3.917285 -0.381084 -7.497020 -1.376990 -13.928555 -0.940043 -0.077570 0.965828 0.000000 0.000000 0.000000 9.272360 -69.156772 10.545015 -22.202326 -6.599411 -28.311757 29.807987 -4.425960 -1.891415 -3.140733 -5.889750 18.258796 -4.043687 0.080718 1.638143 0.000000 0.000000 0.000000 7.063118 -65.729656 8.008598 15.709297 -0.040729 -3.998581 3.810199 -0.293193 -2.181105 0.353994 2.107870 0.361960 0.000000 0.000000 0.000000 2.857822 -0.543297 -2.088420 -5.023384 4.717874 1.415983 -13.108681 52.545304 -5.348142 0.000000 0.000000 0.000000 3.862502 -0.996689 -2.238596 2.702603 -4.699272 -10.535790 -3.956383 -4.484132 1.905079 -41.877112 27.996771 -30.718704 6.633950 -42.425659 7.466437 0.000000 0.000000 0.000000 4.401423 -0.319984 -1.961664 2.053477 7.592959 10.400151 2.587804 2.711382 -0.096270 -1.211158 -9.389046 52.994065 -17.491585 27.396966 10.587510 0.000000 0.000000 0.000000 
-0.292138 104.772835 12.347660 0.000000 0.000000 0.000000 7.917023 -69.568059 9.242841 -32.087488 15.210871 22.015552 37.117584 -3.578360 -0.461065 -9.040414 -0.635115 -12.209163 -1.057543 -0.099747 0.937951 0.000000 0.000000 0.000000 10.870786 -69.312411 11.655169 -23.844749 -4.201295 -27.435174 31.936544 -4.359063 -1.288420 -4.167024 -6.903330 17.627844 -3.728525 0.138427 1.744727 0.000000 0.000000 0.000000 8.863430 -65.874415 9.206188 15.433617 -0.326730 -3.768180 3.340910 -0.977766 -1.926149 0.412511 1.569373 0.384392 0.000000 0.000000 0.000000 2.317313 -1.275342 -1.765084 -4.719377 5.857621 0.841431 -12.918134 52.228346 -5.561680 0.000000 0.000000 0.000000 3.320484 -1.707390 -1.954840 2.721865 -5.065436 -10.480365 -4.129766 -3.831809 1.834742 -43.467102 26.778863 -29.904255 9.294270 -40.395204 9.527721 0.000000 0.000000 0.000000 3.796260 -1.047675 -1.700056 2.282807 7.929395 10.754257 2.310067 2.497484 -0.226229 -3.507931 -8.536147 52.635869 -16.313395 24.700488 9.427324 0.000000 0.000000 0.000000 
-0.747547 103.727829 14.456570 0.000000 0.000000 0.000000 9.687009 -69.520725 10.571073 -33.584679 15.096308 21.833881 39.868545 -3.584493 -0.506820 -10.617411 -0.259708 -10.611721 -1.013186 -0.110760 0.870431 0.000000 0.000000 0.000000 12.549160 -68.919901 12.892458 -26.373397 -2.319223 -26.357459 34.065606 -4.005339 -0.590555 -5.904964 -7.522571 17.398297 -2.661780 0.304355 1.583563 0.000000 0.000000 0.000000 10.739661 -65.594500 10.453657 15.078621 -0.621529 -3.521382 2.922965 -1.648440 -1.707900 0.424921 0.977406 0.423383 0.000000 0.000000 0.000000 1.923547 -1.996815 -1.486347 -4.478564 7.044191 0.247873 -13.608176 51.541806 -5.098614 0.000000 0.000000 0.000000 2.867995 -2.377267 -1.698930 2.749271 -5.384851 -10.368991 -4.156767 -3.264207 1.596633 -44.833853 24.913409 -29.308028 11.901099 -38.166807 11.545791 0.000000 0.000000 0.000000 3.250340 -1.790796 -1.494276 2.570907 7.908633 11.006207 2.218394 2.333614 -0.249482 -5.058355 -7.379079 52.815298 -15.269197 23.245178 8.438715 0.000000 0.000000 0.000000 
-1.309490 102.022568 15.964962 0.000000 0.000000 0.000000 12.146540 -68.837372 12.542422 -36.038844 14.469044 21.804050 43.357443 -3.929989 -0.431079 -12.032455 -0.195786 -9.494509 -1.088637 -0.131173 0.849870 0.000000 0.000000 0.000000 14.387606 -68.066530 14.362004 -29.772306 -1.453421 -25.360373 36.702920 -3.391578 0.169573 -8.135085 -7.737190 17.459804 -1.308082 0.521053 1.201351 0.000000 0.000000 0.000000 12.898466 -64.818072 11.906272 14.634922 -0.875414 -3.273152 2.620916 -2.207065 -1.591879 0.425257 0.540821 0.540510 0.000000 0.000000 0.000000 1.721387 -2.591722 -1.315046 -4.462162 8.180286 -0.355508 -15.204980 50.471755 -3.936457 0.000000 0.000000 0.000000 2.558011 -2.901392 -1.550369 2.807165 -5.700553 -10.153446 -4.170531 -2.870046 1.375533 -46.113162 22.540365 -28.814680 14.091135 -35.926368 13.275285 0.000000 0.000000 0.000000 2.857105 -2.412275 -1.405312 2.918429 7.611133 11.192799 2.235215 2.161596 -0.218193 -5.910806 -6.274861 53.432737 -14.426519 23.087049 7.642963 0.000000 0.000000 0.000000 
